# xmcd
# 
# Track frame offsets:
#     150
#     26509
#     45889
#     65805
#     83446
#     101129
#     112593
#     136670
#     154280
#     179801
#     193728
#     212721
#     235433
#     248631
#     272885
#     294170
#     324135
# 
# Disc length: 4624
# 
# Revision: 5
# Processed by: cddbd v1.5.2PL0 Copyright (c) Steve Scherf et al.
# Submitted via: fre:ac v1.0.27
# 
DISCID=e6120e11
DTITLE=Various Artist - Les Nocturnes Country
DYEAR=2013
DGENRE=Country
TTITLE0=Marillion - Easter
TTITLE1=Oasis - Wonderwall
TTITLE2=R.E.M. - Losing my religion
TTITLE3=Radiohead - Creep
TTITLE4=Muse - Ubitended
TTITLE5=Rick Wakeman FEAT. Patrick Stewart - A Vision
TTITLE6=Rick Wakeman - The end of the return
TTITLE7=Nick Cave and The bad seeds with Kylie Minogue - Where the wild roses grow
TTITLE8=Tori Amos - Winter
TTITLE9=Everything but the girl - Downtown train
TTITLE10=Marc Cohn - Walking in Menphis
TTITLE11=Sinead O'Connor - Nothing Compares 2 U
TTITLE12=Jeff Buckley - Corpus christi Carol
TTITLE13=Jimmy Scott - Don't take your love from Me
TTITLE14=Santana FEAT. Everplast - Put your light on
TTITLE15=Gary Moore - Story of the blues
TTITLE16=Robert Plant - Big log
EXTD=
EXTT0=
EXTT1=
EXTT2=
EXTT3=
EXTT4=
EXTT5=
EXTT6=
EXTT7=
EXTT8=
EXTT9=
EXTT10=
EXTT11=
EXTT12=
EXTT13=
EXTT14=
EXTT15=
EXTT16=
PLAYORDER=
